<svg width="260" height="240" viewBox="0 0 260 240" fill="none" xmlns="http://www.w3.org/2000/svg">
<path d="M260 240H0V0H260V240Z" fill="#474645"/>
<path d="M181 88.3363C181 116.32 158.315 139.003 130.333 139.003C102.349 139.003 79.6666 116.32 79.6666 88.3363C79.6666 60.3576 102.349 37.6696 130.333 37.6696C158.315 37.6696 181 60.3576 181 88.3363Z" fill="white"/>
<path d="M173 88.3363C173 111.9 153.897 131.003 130.333 131.003C106.769 131.003 87.6666 111.9 87.6666 88.3363C87.6666 64.7723 106.769 45.6696 130.333 45.6696C153.897 45.6696 173 64.7723 173 88.3363Z" fill="#A0C3ED"/>
<path d="M130.333 40.3356C103.865 40.3356 82.3333 61.8676 82.3333 88.3356C82.3333 114.804 103.865 136.336 130.333 136.336C156.801 136.336 178.333 114.804 178.333 88.3356C178.333 61.8676 156.801 40.3356 130.333 40.3356ZM130.333 141.669C100.925 141.669 77 117.744 77 88.3356C77 58.9276 100.925 35.0023 130.333 35.0023C159.741 35.0023 183.667 58.9276 183.667 88.3356C183.667 117.744 159.741 141.669 130.333 141.669Z" fill="#292829"/>
<path d="M130.333 40.3356C112.689 40.3356 98.3333 61.8676 98.3333 88.3356C98.3333 114.804 112.689 136.336 130.333 136.336C147.977 136.336 162.333 114.804 162.333 88.3356C162.333 61.8676 147.977 40.3356 130.333 40.3356ZM130.333 141.669C109.748 141.669 93 117.744 93 88.3356C93 58.9276 109.748 35.0023 130.333 35.0023C150.919 35.0023 167.667 58.9276 167.667 88.3356C167.667 117.744 150.919 141.669 130.333 141.669Z" fill="#292829"/>
<path d="M130.333 40.3356C122.765 40.3356 114.333 60.0476 114.333 88.3356C114.333 116.624 122.765 136.336 130.333 136.336C137.901 136.336 146.333 116.624 146.333 88.3356C146.333 60.0476 137.901 40.3356 130.333 40.3356ZM130.333 141.669C116.476 141.669 109 114.19 109 88.3356C109 62.4809 116.476 35.0023 130.333 35.0023C144.191 35.0023 151.667 62.4809 151.667 88.3356C151.667 114.19 144.191 141.669 130.333 141.669Z" fill="#292829"/>
<path d="M133 139.003H127.667V37.6696H133V139.003Z" fill="#292829"/>
<path d="M181 91.001H79.6666V85.6676H181V91.001Z" fill="#292829"/>
<path d="M207.667 80.3337H205C202.055 80.3337 199.667 82.7217 199.667 85.667V123L195.276 128.763C193.811 126.891 191.559 125.667 189 125.667L165 149.667C159.667 155 159.667 163 159.667 163V181.667H186.333V179C186.333 179 186.333 173.667 191.667 168.334L207.667 152.334C213 147 213 139 213 139V85.667C213 82.7217 210.612 80.3337 207.667 80.3337Z" fill="white"/>
<path d="M151.667 205.667H194.333V184.334H151.667V205.667Z" fill="#FF8861"/>
<path d="M162.333 179.001H157V163.001C157 162.629 157.069 153.826 163.115 147.782L187.896 123.001H189C194.881 123.001 199.667 127.786 199.667 133.668V134.509L180.519 161.862L176.148 158.806L194.279 132.905C193.956 130.656 192.224 128.856 190.009 128.43L166.885 151.553C162.385 156.053 162.333 162.932 162.333 163.001V179.001Z" fill="#292829"/>
<path d="M189 195.001H183.667V189.668H189V195.001Z" fill="#292829"/>
<path d="M189 184.334H151.667V179.001H183.667C183.667 178.738 183.736 172.493 189.781 166.449L205.781 150.449C210.281 145.949 210.333 139.07 210.333 139.001V85.6673C210.333 84.1967 209.137 83.0007 207.667 83.0007H205C203.529 83.0007 202.333 84.1967 202.333 85.6673V123.001H197V85.6673C197 81.2553 200.588 77.6673 205 77.6673H207.667C212.079 77.6673 215.667 81.2553 215.667 85.6673V139.001C215.667 139.373 215.597 148.175 209.552 154.219L193.552 170.219C189.149 174.622 189.004 178.853 189 179.03V184.334Z" fill="#292829"/>
<path d="M53 80.3337H55.6666C58.612 80.3337 61 82.7217 61 85.667V123L65.3906 128.763C66.8557 126.891 69.1084 125.667 71.6666 125.667L95.6666 149.667C101 155 101 163 101 163V181.667H74.3333V179C74.3333 179 74.3333 173.667 69 168.334L53 152.334C47.6666 147 47.6666 139 47.6666 139V85.667C47.6666 82.7217 50.0546 80.3337 53 80.3337Z" fill="white"/>
<path d="M109 205.667H66.3333V184.334H109V205.667Z" fill="#FF8861"/>
<path d="M103.667 179.001H98.3333V163.001C98.3333 162.94 98.2373 156.009 93.7813 151.553L70.6579 128.43C68.4427 128.856 66.7109 130.656 66.388 132.905L84.5183 158.806L80.1484 161.862L61 134.509V133.668C61 127.786 65.7855 123.001 71.6667 123.001H72.7708L97.552 147.782C103.597 153.826 103.667 162.629 103.667 163.001V179.001Z" fill="#292829"/>
<path d="M77 195.001H71.6666V189.668H77V195.001Z" fill="#292829"/>
<path d="M109 184.334H71.6667V179.001C71.6631 178.853 71.5172 174.622 67.1145 170.219L51.1145 154.219C45.0693 148.175 45 139.373 45 139.001V85.6673C45 81.2553 48.5885 77.6673 53 77.6673H55.6667C60.0781 77.6673 63.6667 81.2553 63.6667 85.6673V123.001H58.3333V85.6673C58.3333 84.1967 57.1364 83.0007 55.6667 83.0007H53C51.5303 83.0007 50.3333 84.1967 50.3333 85.6673V139.001C50.3333 139.062 50.4297 145.993 54.8855 150.449L70.8855 166.449C76.9307 172.493 77 178.738 77 179.001H109V184.334Z" fill="#292829"/>
</svg>
