<svg width="260" height="240" viewBox="0 0 260 240" fill="none" xmlns="http://www.w3.org/2000/svg">
<path d="M260 240H0V0H260V240Z" fill="#474645"/>
<path d="M98.3334 35.3333H82.3334V70H98.3334V35.3333Z" fill="url(#paint0_linear_66_2640)"/>
<path d="M173 112.667L114.333 54L55.6666 112.667V206H173V112.667Z" fill="#EDF4FA"/>
<path d="M47.6666 118H50.3333L114.333 54L178.333 118H181V107.333L114.333 40.6667L47.6666 107.333V118Z" fill="url(#paint1_linear_66_2640)"/>
<path d="M130.333 142H93V200.667H130.333V142Z" fill="url(#paint2_linear_66_2640)"/>
<path d="M114.333 50.2297L178.333 114.23V108.438L114.333 44.4376L50.3333 108.438V114.23L114.333 50.2297ZM183.667 120.667H177.229L114.333 57.771L51.4373 120.667H45V106.23L114.333 36.8964L183.667 106.23V120.667Z" fill="#292829"/>
<path d="M213 142C213 158.2 199.867 171.333 183.667 171.333C167.467 171.333 154.333 158.2 154.333 142C154.333 125.8 167.467 112.666 183.667 112.666C199.867 112.666 213 125.8 213 142Z" fill="#FF8861"/>
<path d="M186.333 142C186.333 158.2 173.2 171.333 157 171.333C140.8 171.333 127.667 158.2 127.667 142C127.667 125.8 140.8 112.666 157 112.666C173.2 112.666 186.333 125.8 186.333 142Z" fill="#FF8861"/>
<path d="M194.333 115.333C194.333 128.588 183.588 139.333 170.333 139.333C157.079 139.333 146.333 128.588 146.333 115.333C146.333 102.078 157.079 91.333 170.333 91.333C183.588 91.333 194.333 102.078 194.333 115.333Z" fill="#FF8861"/>
<path d="M183.667 174C174.087 174 165.089 169.759 158.983 162.364L163.095 158.969C168.185 165.132 175.684 168.667 183.667 168.667C198.371 168.667 210.333 156.704 210.333 142C210.333 130.931 203.672 121.177 193.363 117.151L195.304 112.183C207.673 117.015 215.667 128.717 215.667 142C215.667 159.644 201.311 174 183.667 174Z" fill="#292829"/>
<path d="M194.227 127.188L189.451 124.814C190.92 121.854 191.667 118.663 191.667 115.333C191.667 103.57 182.096 93.9995 170.333 93.9995C158.571 93.9995 149 103.57 149 115.333H143.667C143.667 100.629 155.629 88.6661 170.333 88.6661C185.037 88.6661 197 100.629 197 115.333C197 119.494 196.067 123.482 194.227 127.188Z" fill="#292829"/>
<path d="M157 174C139.356 174 125 159.644 125 142C125 124.356 139.356 110 157 110C158.956 110 160.912 110.177 162.815 110.528L161.852 115.772C160.265 115.48 158.633 115.333 157 115.333C142.296 115.333 130.333 127.296 130.333 142C130.333 156.704 142.296 168.667 157 168.667C161.269 168.667 165.348 167.689 169.12 165.76L171.547 170.511C167.08 172.793 162.049 174 157 174Z" fill="#292829"/>
<path d="M173 203.333H167.667V168.666H173V203.333Z" fill="#292829"/>
<path d="M172.219 194.552L168.448 190.781L179.115 180.114L182.885 183.885L172.219 194.552Z" fill="#292829"/>
<path d="M125 94.0003C125 99.891 120.224 104.667 114.333 104.667C108.443 104.667 103.667 99.891 103.667 94.0003C103.667 88.1097 108.443 83.3337 114.333 83.3337C120.224 83.3337 125 88.1097 125 94.0003Z" fill="white"/>
<path d="M114.333 85.9997C109.921 85.9997 106.333 89.5877 106.333 93.9997C106.333 98.4117 109.921 102 114.333 102C118.745 102 122.333 98.4117 122.333 93.9997C122.333 89.5877 118.745 85.9997 114.333 85.9997ZM114.333 107.333C106.981 107.333 101 101.352 101 93.9997C101 86.6477 106.981 80.6663 114.333 80.6663C121.685 80.6663 127.667 86.6477 127.667 93.9997C127.667 101.352 121.685 107.333 114.333 107.333Z" fill="#292829"/>
<path d="M125 176.667H119.667V171.334H125V176.667Z" fill="#292829"/>
<path d="M63.6666 195.333C63.6666 190.916 60.084 187.333 55.6666 187.333C51.2493 187.333 47.6666 190.916 47.6666 195.333V206H63.6666V195.333Z" fill="#A0C3ED"/>
<path d="M66.3333 206H61V195.333C61 192.392 58.608 190 55.6667 190C52.7253 190 50.3333 192.392 50.3333 195.333V206H45V195.333C45 189.452 49.7853 184.667 55.6667 184.667C61.548 184.667 66.3333 189.452 66.3333 195.333V206Z" fill="#292829"/>
<path d="M79.6666 195.333C79.6666 190.916 76.084 187.333 71.6666 187.333C67.2493 187.333 63.6666 190.916 63.6666 195.333V206H79.6666V195.333Z" fill="#A0C3ED"/>
<path d="M82.3333 206H77V195.333C77 192.392 74.608 190 71.6667 190C68.7253 190 66.3333 192.392 66.3333 195.333V206H61V195.333C61 189.452 65.7853 184.667 71.6667 184.667C77.548 184.667 82.3333 189.452 82.3333 195.333V206Z" fill="#292829"/>
<path d="M194.333 203.333H189V195.333H194.333V203.333Z" fill="#292829"/>
<path d="M162.333 203.333H157V195.333H162.333V203.333Z" fill="#292829"/>
<path d="M205 203.333H199.667V190H205V203.333Z" fill="#292829"/>
<path d="M215.667 206H141V200.667H215.667V206Z" fill="#292829"/>
<path d="M135.667 206H87.6666V200.667H135.667V206Z" fill="#292829"/>
<path d="M79.6666 206H47.6666V200.667H79.6666V206Z" fill="#292829"/>
<defs>
<linearGradient id="paint0_linear_66_2640" x1="93.5334" y1="46.9751" x2="76.0474" y2="50.2197" gradientUnits="userSpaceOnUse">
<stop stop-color="#9BC1F6"/>
<stop offset="1" stop-color="#CABAF8"/>
</linearGradient>
<linearGradient id="paint1_linear_66_2640" x1="141" y1="66.6368" x2="39.1858" y2="137.211" gradientUnits="userSpaceOnUse">
<stop stop-color="#9BC1F6"/>
<stop offset="1" stop-color="#CABAF8"/>
</linearGradient>
<linearGradient id="paint2_linear_66_2640" x1="119.133" y1="161.702" x2="79.5207" y2="171.836" gradientUnits="userSpaceOnUse">
<stop stop-color="#9BC1F6"/>
<stop offset="1" stop-color="#CABAF8"/>
</linearGradient>
</defs>
</svg>
