<svg width="260" height="241" viewBox="0 0 260 241" fill="none" xmlns="http://www.w3.org/2000/svg">
<path d="M260 240.667H0V0.666992H260V240.667Z" fill="#474645"/>
<path d="M215.667 192.004H45V186.671H215.667V192.004Z" fill="#292829"/>
<path d="M210.333 176.004H50.3333C47.388 176.004 45 173.616 45 170.671V69.3372C45 63.4466 49.776 58.6706 55.6667 58.6706H205C210.891 58.6706 215.667 63.4466 215.667 69.3372V170.671C215.667 173.616 213.279 176.004 210.333 176.004Z" fill="white"/>
<path d="M210.333 181.337H50.3334V176.004H210.333V181.337Z" fill="#292829"/>
<path d="M173 64.0049H85V58.6715H173V64.0049Z" fill="#292829"/>
<path d="M77 181.338H50.3334V186.671H77V181.338Z" fill="url(#paint0_linear_66_2266)"/>
<path d="M210.333 181.338H183.667V186.671H210.333V181.338Z" fill="url(#paint1_linear_66_2266)"/>
<path d="M61 69.3376H82.3334V64.0042H61V69.3376ZM87.6667 74.6709H55.6667V58.6709H87.6667V74.6709Z" fill="#292829"/>
<path d="M178.333 69.3376H199.667V64.0042H178.333V69.3376ZM205 74.6709H173V58.6709H205V74.6709Z" fill="#292829"/>
<path d="M162.333 61.3389H157V53.3389H162.333V61.3389Z" fill="#292829"/>
<path d="M103.667 61.3389H98.3333V53.3389H103.667V61.3389Z" fill="#292829"/>
<path d="M167.667 120.006C167.667 140.624 150.952 157.339 130.333 157.339C109.715 157.339 93 140.624 93 120.006C93 99.3869 109.715 82.6722 130.333 82.6722C150.952 82.6722 167.667 99.3869 167.667 120.006Z" fill="#FF8861"/>
<path d="M130.333 85.3392C111.217 85.3392 95.6666 100.89 95.6666 120.006C95.6666 139.122 111.217 154.673 130.333 154.673C149.449 154.673 165 139.122 165 120.006C165 100.89 149.449 85.3392 130.333 85.3392ZM130.333 160.006C108.277 160.006 90.3333 142.062 90.3333 120.006C90.3333 97.9499 108.277 80.0059 130.333 80.0059C152.389 80.0059 170.333 97.9499 170.333 120.006C170.333 142.062 152.389 160.006 130.333 160.006Z" fill="#292829"/>
<path d="M162.333 53.3389H98.3333V48.0055C98.3333 45.0602 100.721 42.6722 103.667 42.6722H157C159.945 42.6722 162.333 45.0602 162.333 48.0055V53.3389Z" fill="url(#paint2_linear_66_2266)"/>
<path d="M146.333 114.671H135.667V104.004H125V114.671H114.333V125.337H125V136.004H135.667V125.337H146.333V114.671Z" fill="white"/>
<path d="M61 170.671H55.6667V80.0042H61V170.671Z" fill="#292829"/>
<path d="M205 170.671H199.667V80.0042H205V170.671Z" fill="#292829"/>
<path d="M98.3333 74.6709H93V69.3376H98.3333V74.6709Z" fill="#292829"/>
<path d="M167.667 74.6709H162.333V69.3376H167.667V74.6709Z" fill="#292829"/>
<defs>
<linearGradient id="paint0_linear_66_2266" x1="69" y1="183.129" x2="63.0195" y2="195.151" gradientUnits="userSpaceOnUse">
<stop stop-color="#9BC1F6"/>
<stop offset="1" stop-color="#CABAF8"/>
</linearGradient>
<linearGradient id="paint1_linear_66_2266" x1="202.333" y1="183.129" x2="196.353" y2="195.151" gradientUnits="userSpaceOnUse">
<stop stop-color="#9BC1F6"/>
<stop offset="1" stop-color="#CABAF8"/>
</linearGradient>
<linearGradient id="paint2_linear_66_2266" x1="143.133" y1="46.2543" x2="132.523" y2="71.8496" gradientUnits="userSpaceOnUse">
<stop stop-color="#9BC1F6"/>
<stop offset="1" stop-color="#CABAF8"/>
</linearGradient>
</defs>
</svg>
