<svg width="260" height="241" viewBox="0 0 260 241" fill="none" xmlns="http://www.w3.org/2000/svg">
<path d="M260 240.666H0V0.666016H260V240.666Z" fill="#474645"/>
<path d="M215.667 58.3259V175.659H53C48.5817 175.659 45 172.077 45 167.659V58.3259H215.667Z" fill="#FF8861"/>
<path d="M215.667 50.3271H55.6666C51.2484 50.3271 47.6666 53.9085 47.6666 58.3271C47.6666 62.7445 51.2484 66.3271 55.6666 66.3271H215.667V50.3271Z" fill="white"/>
<path d="M183.667 58.3271V36.9938H71.6666V58.3271H183.667Z" fill="#EDF4FA"/>
<path d="M114.333 58.3271H66.3333V31.6605H189V55.6605H183.667V36.9938H71.6666V52.9938H114.333V58.3271Z" fill="#292829"/>
<path d="M210.333 47.6608H125V52.9941H210.333V47.6608Z" fill="url(#paint0_linear_66_2405)"/>
<path d="M125 52.9938H210.333V47.6605H125V52.9938ZM215.667 58.3271H119.667V42.3271H215.667V58.3271Z" fill="#292829"/>
<path d="M82.3333 47.6602H77V42.3268H82.3333V47.6602Z" fill="#292829"/>
<path d="M93 47.6602H87.6666V42.3268H93V47.6602Z" fill="#292829"/>
<path d="M215.667 68.9941H55.6667C49.7855 68.9941 45 64.2088 45 58.3275C45 52.4461 49.7855 47.6608 55.6667 47.6608H69V52.9941H55.6667C52.7251 52.9941 50.3333 55.3861 50.3333 58.3275C50.3333 61.2688 52.7251 63.6608 55.6667 63.6608H215.667V68.9941Z" fill="#292829"/>
<path d="M133 202.327H127.667V100.994H133V202.327Z" fill="#292829"/>
<path d="M122.333 170.326H117V128.763L104.448 116.212L108.219 112.441L122.333 126.556V170.326Z" fill="#292829"/>
<path d="M143.667 186.327H138.333V126.557L152.448 112.442L156.219 116.213L143.667 128.764V186.327Z" fill="#292829"/>
<path d="M162.333 114.327C162.333 118.744 158.751 122.327 154.333 122.327C149.916 122.327 146.333 118.744 146.333 114.327C146.333 109.91 149.916 106.327 154.333 106.327C158.751 106.327 162.333 109.91 162.333 114.327Z" fill="white"/>
<path d="M154.333 108.994C151.392 108.994 149 111.386 149 114.327C149 117.269 151.392 119.661 154.333 119.661C157.275 119.661 159.667 117.269 159.667 114.327C159.667 111.386 157.275 108.994 154.333 108.994ZM154.333 124.994C148.452 124.994 143.667 120.209 143.667 114.327C143.667 108.446 148.452 103.661 154.333 103.661C160.215 103.661 165 108.446 165 114.327C165 120.209 160.215 124.994 154.333 124.994Z" fill="#292829"/>
<path d="M138.333 92.9941C138.333 97.4115 134.751 100.994 130.333 100.994C125.916 100.994 122.333 97.4115 122.333 92.9941C122.333 88.5768 125.916 84.9941 130.333 84.9941C134.751 84.9941 138.333 88.5768 138.333 92.9941Z" fill="white"/>
<path d="M130.333 87.6602C127.392 87.6602 125 90.0522 125 92.9935C125 95.9348 127.392 98.3268 130.333 98.3268C133.275 98.3268 135.667 95.9348 135.667 92.9935C135.667 90.0522 133.275 87.6602 130.333 87.6602ZM130.333 103.66C124.452 103.66 119.667 98.8748 119.667 92.9935C119.667 87.1122 124.452 82.3268 130.333 82.3268C136.215 82.3268 141 87.1122 141 92.9935C141 98.8748 136.215 103.66 130.333 103.66Z" fill="#292829"/>
<path d="M114.333 114.327C114.333 118.744 110.751 122.327 106.333 122.327C101.916 122.327 98.3333 118.744 98.3333 114.327C98.3333 109.91 101.916 106.327 106.333 106.327C110.751 106.327 114.333 109.91 114.333 114.327Z" fill="white"/>
<path d="M106.333 108.994C103.392 108.994 101 111.386 101 114.327C101 117.269 103.392 119.661 106.333 119.661C109.275 119.661 111.667 117.269 111.667 114.327C111.667 111.386 109.275 108.994 106.333 108.994ZM106.333 124.994C100.452 124.994 95.6666 120.209 95.6666 114.327C95.6666 108.446 100.452 103.661 106.333 103.661C112.215 103.661 117 108.446 117 114.327C117 120.209 112.215 124.994 106.333 124.994Z" fill="#292829"/>
<path d="M111.667 159.66H106.333V154.327H111.667V159.66Z" fill="#292829"/>
<path d="M111.667 148.994H106.333V143.661H111.667V148.994Z" fill="#292829"/>
<path d="M154.333 159.66H149V154.327H154.333V159.66Z" fill="#292829"/>
<path d="M154.333 148.994H149V143.661H154.333V148.994Z" fill="#292829"/>
<path d="M143.667 196.994H138.333V191.661H143.667V196.994Z" fill="#292829"/>
<path d="M122.333 196.994H117V191.661H122.333V196.994Z" fill="#292829"/>
<path d="M111.667 196.994H106.333V191.661H111.667V196.994Z" fill="#292829"/>
<path d="M215.667 186.327H141V180.994H215.667V186.327Z" fill="#292829"/>
<path d="M130.333 186.327H45V180.994H130.333V186.327Z" fill="#292829"/>
<defs>
<linearGradient id="paint0_linear_66_2405" x1="184.733" y1="49.4519" x2="182.457" y2="64.095" gradientUnits="userSpaceOnUse">
<stop stop-color="#9BC1F6"/>
<stop offset="1" stop-color="#CABAF8"/>
</linearGradient>
</defs>
</svg>
