<svg width="260" height="240" viewBox="0 0 260 240" fill="none" xmlns="http://www.w3.org/2000/svg">
<path d="M260 240H0V0H260V240Z" fill="#474645"/>
<path d="M215.667 206H45V83.3333H215.667V206Z" fill="#EDF4FA"/>
<path d="M61.0001 94H215.667V83.3333H61.0001V94Z" fill="#FF8861"/>
<path d="M63.6668 83.333L213 51.333L210.333 37.9997L61.0001 69.9997L63.6668 83.333Z" fill="#FF8861"/>
<path d="M60.9975 72.666C59.7709 72.666 58.6668 71.8154 58.395 70.5687C58.0808 69.1287 58.9923 67.7073 60.4308 67.394L207.097 35.394C208.533 35.0833 209.959 35.9913 210.272 37.43C210.585 38.87 209.675 40.2914 208.236 40.6047L61.5695 72.6047C61.3778 72.646 61.1861 72.666 60.9975 72.666Z" fill="#292829"/>
<path d="M74.3334 83.3327C74.3334 90.6967 68.3641 96.666 61.0001 96.666C53.6361 96.666 47.6667 90.6967 47.6667 83.3327C47.6667 75.9687 53.6361 69.9994 61.0001 69.9994C68.3641 69.9994 74.3334 75.9687 74.3334 83.3327Z" fill="white"/>
<path d="M61 72.6663C55.1188 72.6663 50.3333 77.4517 50.3333 83.333C50.3333 89.2143 55.1188 93.9997 61 93.9997C66.8812 93.9997 71.6667 89.2143 71.6667 83.333C71.6667 77.4517 66.8812 72.6663 61 72.6663ZM61 99.333C52.1771 99.333 45 92.1557 45 83.333C45 74.5103 52.1771 67.333 61 67.333C69.8229 67.333 77 74.5103 77 83.333C77 92.1557 69.8229 99.333 61 99.333Z" fill="#292829"/>
<path d="M215.667 99.333H61.0001V93.9997H215.667V99.333Z" fill="#292829"/>
<path d="M199.667 190H45V110H199.667V190Z" fill="white"/>
<path d="M194.333 184.666H55.6667V115.333H194.333V184.666Z" fill="url(#paint0_linear_66_2493)"/>
<path d="M215.667 206H45V189.998L151.667 190V195.333L50.3333 195.332V200.667H210.333V104.667H215.667V206Z" fill="#292829"/>
<path d="M205 195.333H157V190H199.667V110H45V104.666H205V195.333Z" fill="#292829"/>
<path d="M183.667 94H173V83.3333H183.667V94Z" fill="white"/>
<path d="M205 94H194.333V83.3333H205V94Z" fill="white"/>
<path d="M141 94H130.333V83.3333H141V94Z" fill="white"/>
<path d="M162.333 94H151.667V83.3333H162.333V94Z" fill="white"/>
<path d="M98.3334 94H87.6667V83.3333H98.3334V94Z" fill="white"/>
<path d="M119.667 94H109V83.3333H119.667V94Z" fill="white"/>
<path d="M202.333 152.664H66.3334V147.331H202.333V152.664Z" fill="#292829"/>
<path d="M170.333 134H165V128.667H170.333V134Z" fill="#292829"/>
<path d="M181 134H175.667V128.667H181V134Z" fill="#292829"/>
<path d="M159.667 134H154.333V128.667H159.667V134Z" fill="#292829"/>
<path d="M60.6666 184.666H55.3333V107.333H60.6666V184.666Z" fill="#292829"/>
<path d="M71.3333 152.666H58V147.333H71.3333V152.666Z" fill="#292829"/>
<defs>
<linearGradient id="paint0_linear_66_2493" x1="152.733" y1="138.616" x2="57.5254" y2="215.17" gradientUnits="userSpaceOnUse">
<stop stop-color="#9BC1F6"/>
<stop offset="1" stop-color="#CABAF8"/>
</linearGradient>
</defs>
</svg>
