<svg width="260" height="241" viewBox="0 0 260 241" fill="none" xmlns="http://www.w3.org/2000/svg">
<path d="M260 240.333H0V0.333008H260V240.333Z" fill="#474645"/>
<path d="M161.667 75.6621L193.667 54.3288V51.6621H161.667V75.6621Z" fill="#EDF4FA"/>
<path d="M161.667 118.33L193.667 96.9967V94.3301H161.667V118.33Z" fill="#EDF4FA"/>
<path d="M161.667 160.996L193.667 139.663V136.996H161.667V160.996Z" fill="#EDF4FA"/>
<path d="M97.6667 75.6621L65.6667 54.3288V51.6621H97.6667V75.6621Z" fill="#EDF4FA"/>
<path d="M97.6667 118.33L65.6667 96.9967V94.3301H97.6667V118.33Z" fill="#EDF4FA"/>
<path d="M97.6667 160.996L65.6667 139.663V136.996H97.6667V160.996Z" fill="#EDF4FA"/>
<path d="M156.333 182.33H103C101.528 182.33 100.333 181.135 100.333 179.663V40.9967C100.333 39.5247 101.528 38.3301 103 38.3301H156.333C157.805 38.3301 159 39.5247 159 40.9967V179.663C159 181.135 157.805 182.33 156.333 182.33Z" fill="url(#paint0_linear_66_2242)"/>
<path d="M164.333 54.3295V70.6801L188.86 54.3295H164.333ZM159 80.6455V48.9962H196.333V55.7562L159 80.6455Z" fill="#292829"/>
<path d="M164.333 96.9975V113.348L188.86 96.9975H164.333ZM159 123.313V91.6641H196.333V98.4241L159 123.313Z" fill="#292829"/>
<path d="M164.333 139.663V156.014L188.86 139.663H164.333ZM159 165.979V134.33H196.333V141.09L159 165.979Z" fill="#292829"/>
<path d="M70.4733 54.3295L95 70.6801V54.3295H70.4733ZM100.333 80.6455L63 55.7562V48.9962H100.333V80.6455Z" fill="#292829"/>
<path d="M70.4733 96.9975L95 113.348V96.9975H70.4733ZM100.333 123.313L63 98.4241V91.6641H100.333V123.313Z" fill="#292829"/>
<path d="M70.4733 139.663L95 156.014V139.663H70.4733ZM100.333 165.979L63 141.09V134.33H100.333V165.979Z" fill="#292829"/>
<path d="M140.333 208.996H135V187.663H124.333V208.996H119V182.329H140.333V208.996Z" fill="#292829"/>
<path d="M145.667 67.6631C145.667 76.4991 138.503 83.6631 129.667 83.6631C120.831 83.6631 113.667 76.4991 113.667 67.6631C113.667 58.8271 120.831 51.6631 129.667 51.6631C138.503 51.6631 145.667 58.8271 145.667 67.6631Z" fill="#FF8861"/>
<path d="M145.667 110.33C145.667 119.166 138.503 126.33 129.667 126.33C120.831 126.33 113.667 119.166 113.667 110.33C113.667 101.494 120.831 94.3301 129.667 94.3301C138.503 94.3301 145.667 101.494 145.667 110.33Z" fill="white"/>
<path d="M145.667 152.996C145.667 161.832 138.503 168.996 129.667 168.996C120.831 168.996 113.667 161.832 113.667 152.996C113.667 144.16 120.831 136.996 129.667 136.996C138.503 136.996 145.667 144.16 145.667 152.996Z" fill="#A0C3ED"/>
<path d="M129.667 54.3301C122.315 54.3301 116.333 60.3114 116.333 67.6634C116.333 75.0154 122.315 80.9967 129.667 80.9967C137.019 80.9967 143 75.0154 143 67.6634C143 60.3114 137.019 54.3301 129.667 54.3301ZM129.667 86.3301C119.373 86.3301 111 77.9567 111 67.6634C111 57.3701 119.373 48.9967 129.667 48.9967C139.96 48.9967 148.333 57.3701 148.333 67.6634C148.333 77.9567 139.96 86.3301 129.667 86.3301Z" fill="#292829"/>
<path d="M129.667 96.9961C122.315 96.9961 116.333 102.977 116.333 110.329C116.333 117.681 122.315 123.663 129.667 123.663C137.019 123.663 143 117.681 143 110.329C143 102.977 137.019 96.9961 129.667 96.9961ZM129.667 128.996C119.373 128.996 111 120.623 111 110.329C111 100.036 119.373 91.6628 129.667 91.6628C139.96 91.6628 148.333 100.036 148.333 110.329C148.333 120.623 139.96 128.996 129.667 128.996Z" fill="#292829"/>
<path d="M129.667 139.663C122.315 139.663 116.333 145.644 116.333 152.996C116.333 160.348 122.315 166.33 129.667 166.33C137.019 166.33 143 160.348 143 152.996C143 145.644 137.019 139.663 129.667 139.663ZM129.667 171.663C119.373 171.663 111 163.29 111 152.996C111 142.703 119.373 134.33 129.667 134.33C139.96 134.33 148.333 142.703 148.333 152.996C148.333 163.29 139.96 171.663 129.667 171.663Z" fill="#292829"/>
<path d="M135 208.996H124.333V187.663H135V208.996Z" fill="#EDF4FA"/>
<defs>
<linearGradient id="paint0_linear_66_2242" x1="141.4" y1="86.6883" x2="76.8101" y2="97.2676" gradientUnits="userSpaceOnUse">
<stop stop-color="#9BC1F6"/>
<stop offset="1" stop-color="#CABAF8"/>
</linearGradient>
</defs>
</svg>
