<svg width="260" height="241" viewBox="0 0 260 241" fill="none" xmlns="http://www.w3.org/2000/svg">
<path d="M260 240.333H0V0.333008H260V240.333Z" fill="#474645"/>
<path d="M71.6667 75.9945H45V166.661H87.6667V145.328L71.6667 129.328V75.9945Z" fill="white"/>
<path d="M191.667 126.663L210.333 198.663H109L127.667 126.663V110.663H191.667V126.663Z" fill="white"/>
<path d="M178.333 203.997H45V171.997H178.333V203.997Z" fill="#EDF4FA"/>
<path d="M215.667 209.33H45V203.997H215.667V209.33Z" fill="#292829"/>
<path d="M130.333 206.663H125V193.33H178.333V198.663H130.333V206.663Z" fill="#292829"/>
<path d="M178.333 203.997H130.333V198.664H178.333V203.997Z" fill="#A0C3ED"/>
<path d="M93 203.997H45V198.664H93V203.997Z" fill="#A0C3ED"/>
<path d="M93 193.33H45V187.997H93V193.33Z" fill="#A0C3ED"/>
<path d="M157 206.663H151.667V195.996H157V206.663Z" fill="#292829"/>
<path d="M130.333 187.997H125V182.664H130.333V187.997Z" fill="#292829"/>
<path d="M141 187.997H135.667V182.664H141V187.997Z" fill="#292829"/>
<path d="M157 161.328H66.3334V166.661H157V161.328Z" fill="#EDF4FA"/>
<path d="M157 161.329H66.3334V155.996H157V161.329Z" fill="#292829"/>
<path d="M191.667 110.663H127.667V105.33H191.667V110.663Z" fill="#292829"/>
<path d="M191.667 99.9967H127.667V105.33H191.667V99.9967Z" fill="#FF8861"/>
<path d="M178.333 203.997H210.333V198.664H178.333V203.997Z" fill="#EDF4FA"/>
<path d="M191.667 94.6631C185.992 94.6631 181.901 88.8164 181.453 88.1497C180.723 87.0777 178.083 83.9964 175.667 83.9964V78.6631C181.341 78.6631 185.432 84.5098 185.88 85.1764C186.611 86.2484 189.251 89.3298 191.667 89.3298C194.153 89.3298 196.863 86.0538 197.453 85.1764C197.901 84.5098 201.992 78.6631 207.667 78.6631V83.9964C205.18 83.9964 202.471 87.2724 201.88 88.1497C201.432 88.8164 197.341 94.6631 191.667 94.6631Z" fill="#292829"/>
<path d="M170.333 89.3301H165C165 83.4487 169.785 78.6634 175.667 78.6634V83.9967C172.725 83.9967 170.333 86.3887 170.333 89.3301Z" fill="#292829"/>
<path d="M170.333 94.6631H165V89.3298H170.333V94.6631Z" fill="#292829"/>
<path d="M175.667 83.9971H159.667V78.6637H175.667V83.9971Z" fill="#292829"/>
<path d="M154.333 89.3301H149C149 83.4487 153.785 78.6634 159.667 78.6634V83.9967C156.725 83.9967 154.333 86.3887 154.333 89.3301Z" fill="#292829"/>
<path d="M154.333 94.6631H149V89.3298H154.333V94.6631Z" fill="#292829"/>
<path d="M178.333 171.997H45V166.664H178.333V171.997Z" fill="#292829"/>
<path d="M103.667 155.997H98.3334V134.664H103.667V155.997Z" fill="#292829"/>
<path d="M114.333 155.997H109V145.33H114.333V155.997Z" fill="#292829"/>
<path d="M181 121.33H175.667V115.997H181V121.33Z" fill="#292829"/>
<path d="M111.667 54.665C105.992 54.665 101.901 48.8184 101.453 48.1517C100.723 47.0797 98.0827 43.9984 95.6667 43.9984C93.1801 43.9984 90.4698 47.2744 89.8803 48.1517C89.4323 48.8184 85.3413 54.665 79.6667 54.665C73.9922 54.665 69.9011 48.8184 69.4531 48.1517C68.723 47.0797 66.0818 43.9984 63.6667 43.9984V38.665C69.3413 38.665 73.4323 44.5117 73.8803 45.1784C74.6105 46.2504 77.2517 49.3317 79.6667 49.3317C82.1537 49.3317 84.8637 46.0557 85.4532 45.1784C85.9012 44.5117 89.9922 38.665 95.6667 38.665C101.341 38.665 105.432 44.5117 105.88 45.1784C106.611 46.2504 109.251 49.3317 111.667 49.3317C114.153 49.3317 116.863 46.0557 117.453 45.1784C117.901 44.5117 121.992 38.665 127.667 38.665V43.9984C125.18 43.9984 122.471 47.2744 121.88 48.1517C121.432 48.8184 117.341 54.665 111.667 54.665Z" fill="#292829"/>
<path d="M58.3333 49.3301H53C53 43.4487 57.7855 38.6634 63.6667 38.6634V43.9967C60.7251 43.9967 58.3333 46.3887 58.3333 49.3301Z" fill="#292829"/>
<path d="M58.3333 54.665H53V49.3317H58.3333V54.665Z" fill="#292829"/>
<path d="M71.6667 65.3301H45V59.9967H71.6667V65.3301Z" fill="#292829"/>
<path d="M71.6667 75.9971H45V70.6637H71.6667V75.9971Z" fill="#292829"/>
<path d="M71.6667 70.6631H45V65.3298H71.6667V70.6631Z" fill="#FF8861"/>
<path d="M61.0001 91.9971H55.6667V86.6637H61.0001V91.9971Z" fill="#292829"/>
<path d="M61.0001 102.663H55.6667V97.3298H61.0001V102.663Z" fill="#292829"/>
<path d="M61.0001 113.33H55.6667V107.997H61.0001V113.33Z" fill="#292829"/>
<path d="M98.3333 206.663H93V187.996H45V182.663H98.3333V206.663Z" fill="#292829"/>
<path d="M71.6667 206.663H66.3334V185.33H71.6667V206.663Z" fill="#292829"/>
<path d="M95.6667 198.663H45V193.33H95.6667V198.663Z" fill="#292829"/>
</svg>
