<svg width="160" height="80" viewBox="0 0 160 80" fill="none" xmlns="http://www.w3.org/2000/svg">
<g clip-path="url(#clip0_25_74)">
<path d="M31.5797 20.979C28.6827 20.979 25.9291 21.6316 23.4778 22.7936H39.6975C37.2462 21.6316 34.4925 20.979 31.5956 20.979H31.5797ZM25.4993 24.6081H20.4058C19.6418 25.1493 18.9255 25.7701 18.257 26.4227H22.9207C23.7007 25.7223 24.5602 25.1175 25.4834 24.6081H25.4993ZM35.2406 30.0359H47.7834C47.4014 29.4151 46.9716 28.8103 46.51 28.2213H35.2247V30.0359H35.2406ZM21.2176 28.2213H16.6493C16.1877 28.7944 15.7739 29.3992 15.3759 30.0359H19.9601C20.3262 29.3992 20.7401 28.7944 21.2016 28.2213H21.2176ZM35.2406 26.4068H44.9024C44.2339 25.7542 43.5176 25.1334 42.7536 24.5922H35.2406V26.4068ZM50.6008 40.0001C50.6008 39.6977 50.6008 39.3952 50.5849 39.0928H44.027C43.7723 38.4561 43.4699 37.8672 43.1356 37.2782H50.4257C50.3461 36.6575 50.2188 36.0526 50.0755 35.4637H41.8941C41.3688 34.8111 40.7798 34.2062 40.1591 33.6491H49.5343C49.3115 33.0283 49.0568 32.4235 48.7862 31.8346H27.9187V40.8915H35.2566V49.9484H15.3759C15.7739 50.5691 16.1877 51.1899 16.6493 51.7629H27.9028V53.5775H18.2729C18.9414 54.2301 19.6577 54.835 20.4217 55.3921H27.9028V57.2066H23.4778C25.9291 58.3686 28.6827 59.0212 31.5797 59.0212C34.4766 59.0212 37.2303 58.3686 39.6816 57.2066H37.6282C38.5355 56.6973 39.395 56.0924 40.175 55.3921H42.7377C43.4858 54.835 44.218 54.2301 44.8865 53.5775H41.91C42.3716 53.0045 42.7695 52.3996 43.1515 51.7629H46.526C46.9876 51.1899 47.4014 50.5851 47.7993 49.9484H44.0429C44.2816 49.3594 44.4886 48.7546 44.6318 48.1338H48.7862C49.0568 47.5449 49.3115 46.94 49.5343 46.3192H44.982C45.0616 45.7303 45.0934 45.1254 45.0934 44.5206L50.0755 44.5047C50.2188 43.8998 50.3461 43.3109 50.4257 42.6901H44.982C44.9183 42.0693 44.791 41.4645 44.6318 40.8755H50.6008C50.6008 40.5731 50.6167 40.2707 50.6167 39.9683L50.6008 40.0001ZM21.2016 46.3352H13.641C13.8638 46.9559 14.1026 47.5608 14.3891 48.1497H22.9366C22.3159 47.5926 21.7269 46.9878 21.2176 46.3352H21.2016ZM19.0687 42.706H12.7496C12.8292 43.3268 12.9565 43.9157 13.0998 44.5206H19.9601C19.6258 43.9317 19.3234 43.3268 19.0847 42.706H19.0687ZM18.0182 37.2782C18.0182 36.6734 18.05 36.0526 18.1296 35.4637H13.0998C12.9565 36.0526 12.8451 36.6575 12.7496 37.2782H18.0182ZM19.0687 31.8505H14.3891C14.1026 32.4394 13.8638 33.0443 13.641 33.665H18.4798C18.639 33.0443 18.83 32.4394 19.0687 31.8505ZM18.1296 39.0928H12.5745C12.5586 39.3952 12.5586 39.6977 12.5586 40.0001C12.5586 40.3025 12.5586 40.605 12.5745 40.9074H18.4798C18.3206 40.3184 18.2092 39.7136 18.1296 39.0928Z" fill="white"/>
<path d="M132.352 31.1821C132.622 31.2458 132.797 31.405 132.893 31.5323C133.02 31.7074 133.068 31.9939 133.02 32.2804C132.718 33.7766 132.352 35.0819 131.954 36.1324V48.1976C131.954 48.4682 131.858 48.707 131.683 48.8821C131.524 49.0413 131.317 49.1368 131.062 49.1527C130.823 49.1527 130.601 49.0731 130.426 48.898C130.266 48.7229 130.187 48.4842 130.187 48.1976V39.5228C129.741 40.1594 129.455 40.239 129.264 40.2709C129.088 40.3027 128.834 40.239 128.643 40.0799C128.468 39.9366 128.34 39.6978 128.324 39.4909C128.309 39.2999 128.404 39.0134 128.579 38.7906C130.012 36.7054 130.935 34.4133 131.301 31.9939C131.349 31.7074 131.492 31.4686 131.667 31.3572C131.826 31.2617 132.129 31.1503 132.367 31.214L132.352 31.1821ZM135.217 42.5629H145.053C145.451 42.5629 145.786 42.6744 146.024 42.9131C146.279 43.1519 146.391 43.3747 146.391 43.709V47.4814C146.391 47.8316 146.231 48.1499 145.961 48.4205C145.706 48.6752 145.388 48.8343 145.053 48.8343H135.217C134.882 48.8343 134.612 48.6911 134.405 48.4364C134.166 48.1499 134.071 47.8475 134.071 47.4814V43.709C134.071 43.4066 134.198 43.1041 134.405 42.8972C134.612 42.6903 134.898 42.5629 135.217 42.5629ZM136.363 44.2661C136.108 44.2661 136.012 44.3298 135.949 44.3934C135.885 44.4571 135.821 44.5844 135.821 44.7595C135.821 44.7754 135.821 46.6218 135.821 46.6218C135.821 46.8288 135.869 46.9402 135.949 47.0198C136.044 47.1153 136.188 47.163 136.379 47.163H144.035C144.242 47.163 144.417 47.0994 144.496 47.0357C144.576 46.9561 144.608 46.8288 144.608 46.6378V44.8232C144.608 44.6322 144.576 44.5049 144.496 44.4412C144.385 44.3298 144.258 44.282 144.051 44.282H136.347L136.363 44.2661ZM135.121 39.7297C134.866 39.7297 134.644 39.8252 134.5 39.9684C134.341 40.1276 134.278 40.3823 134.278 40.5733C134.278 40.7643 134.341 41.0349 134.5 41.1782C134.66 41.3373 134.882 41.4169 135.121 41.4169H145.324C145.611 41.4169 145.802 41.3055 145.945 41.1782C146.088 41.019 146.168 40.7802 146.168 40.5574C146.168 40.3345 146.104 40.0958 145.945 39.9366C145.818 39.7934 145.611 39.7138 145.324 39.7138H135.121V39.7297ZM135.121 37.0556C134.835 37.0556 134.66 37.1352 134.5 37.2943C134.357 37.4376 134.278 37.6923 134.278 37.8992C134.278 38.1061 134.357 38.3449 134.5 38.5041C134.66 38.6632 134.835 38.7428 135.121 38.7428H145.324C145.595 38.7428 145.786 38.6314 145.945 38.4722C146.088 38.313 146.168 38.1061 146.168 37.8833C146.168 37.6604 146.104 37.4535 145.945 37.2943C145.802 37.1511 145.595 37.0238 145.324 37.0238H135.121V37.0556ZM133.88 34.3497C133.577 34.3497 133.418 34.4292 133.259 34.5884C133.116 34.7317 133.02 34.9863 133.02 35.1933C133.02 35.4002 133.1 35.6549 133.259 35.7981C133.418 35.9573 133.577 36.0369 133.88 36.0369H146.582C146.868 36.0369 147.059 35.9255 147.186 35.7981C147.346 35.6549 147.409 35.4002 147.409 35.1933C147.409 34.9863 147.33 34.7476 147.186 34.5884C147.043 34.4452 146.852 34.3337 146.582 34.3337H133.88V34.3497ZM135.121 31.6756C134.835 31.6756 134.644 31.7711 134.5 31.9143C134.357 32.0576 134.278 32.2327 134.278 32.5192C134.278 32.8057 134.357 32.9808 134.5 33.124C134.644 33.2673 134.851 33.3628 135.121 33.3628H145.324C145.611 33.3628 145.802 33.2514 145.945 33.124C146.104 32.9808 146.168 32.7898 146.168 32.5192C146.168 32.2486 146.088 32.0576 145.945 31.9143C145.802 31.7711 145.626 31.6756 145.34 31.6756H135.137H135.121Z" fill="white"/>
<path d="M101.759 33.0285C101.759 33.2195 101.679 33.4583 101.536 33.5856C101.377 33.7448 101.201 33.8403 100.947 33.8403H96.9198V33.904C96.9198 34.1905 96.8402 34.4133 96.6651 34.5884C96.5059 34.7476 96.2831 34.8431 96.0284 34.8431C95.7737 34.8431 95.5668 34.7476 95.3917 34.5725C95.2166 34.3974 95.153 34.1746 95.153 33.888V33.8244H90.1072V33.888C90.1072 34.1746 90.0435 34.3974 89.8525 34.5725C89.6933 34.7317 89.4705 34.8272 89.2158 34.8272C88.9611 34.8272 88.7542 34.7317 88.5791 34.5725C88.404 34.3974 88.3404 34.1746 88.3404 33.888V33.8244H84.3292C84.0586 33.8244 83.8676 33.7289 83.7403 33.6015C83.5811 33.4583 83.5175 33.2036 83.5175 33.0126C83.5175 32.8216 83.597 32.5669 83.7403 32.4396C83.8676 32.3122 84.0746 32.2167 84.3452 32.2167H88.3563V31.8188C88.3563 31.5323 88.4359 31.3095 88.5951 31.1344C88.7701 30.9752 88.9771 30.8797 89.2317 30.8797C89.4864 30.8797 89.7093 30.9752 89.8684 31.1344C90.0435 31.3095 90.1231 31.5482 90.1231 31.8188V32.2167H95.1689V31.8188C95.1689 31.5323 95.2485 31.3095 95.4076 31.1344C95.5827 30.9593 95.7896 30.8638 96.0443 30.8638C96.299 30.8638 96.5059 30.9593 96.681 31.1184C96.8561 31.2935 96.9357 31.5323 96.9357 31.8029V32.2008H100.963C101.202 32.2008 101.408 32.2963 101.536 32.4396C101.679 32.5828 101.759 32.8216 101.759 33.0126V33.0285ZM89.0248 40.1913V41.8307H91.7626V40.1913H89.0248ZM93.5294 36.8646V38.5836H96.2831V36.8646H93.5294ZM96.2831 40.43V40.1913H93.5294V41.8307H100.453C100.692 41.8307 100.883 41.8944 101.026 42.0377C101.186 42.1968 101.249 42.4674 101.249 42.6425C101.249 42.8176 101.186 43.0564 101.026 43.1996C100.867 43.3588 100.692 43.4543 100.453 43.4543H93.5294V44.7913H100.947C101.186 44.7913 101.393 44.855 101.52 44.9983C101.663 45.1574 101.743 45.3962 101.743 45.5872C101.743 45.7941 101.647 46.0329 101.52 46.1921C101.377 46.3512 101.186 46.4149 100.931 46.4149H93.5135V48.1817C93.5135 48.4682 93.4339 48.6911 93.2588 48.8662C93.0996 49.0253 92.8768 49.1208 92.6221 49.1208C92.3674 49.1208 92.1446 49.0253 91.9854 48.8502C91.8103 48.6752 91.7467 48.4523 91.7467 48.1658V46.399H84.3292C84.0746 46.399 83.8836 46.3194 83.7403 46.1761C83.597 46.017 83.5175 45.7305 83.5175 45.5872C83.5175 45.444 83.597 45.1574 83.7403 45.0142C83.8836 44.8709 84.0746 44.7913 84.3452 44.7913H91.7626V43.4543H84.8386C84.5839 43.4543 84.377 43.3906 84.2337 43.2315C84.0905 43.0882 84.0268 42.8176 84.0268 42.6425C84.0268 42.4674 84.0905 42.2128 84.2497 42.0536C84.377 41.9262 84.5839 41.8307 84.8386 41.8307H87.2421V40.1913H83.804C83.5493 40.1913 83.3583 40.1117 83.215 39.9684C83.0718 39.8252 82.9922 39.5864 82.9922 39.3795C82.9922 39.1726 83.0718 38.9656 83.215 38.8065C83.3583 38.6632 83.5493 38.5836 83.804 38.5836H87.2262V38.3926C87.2262 38.122 87.3058 37.8833 87.4649 37.7082C87.64 37.5331 87.8469 37.4535 88.1016 37.4535C88.3563 37.4535 88.5791 37.549 88.7383 37.7082C88.9134 37.8833 88.993 38.122 88.993 38.3926V38.5836H91.7467V36.8646H84.8227C84.568 36.8646 84.3611 36.7691 84.2337 36.6417C84.0905 36.4985 84.0109 36.196 84.0109 36.0528C84.0109 35.9095 84.1064 35.623 84.2337 35.4798C84.377 35.3365 84.568 35.2569 84.8227 35.2569H100.437C100.676 35.2569 100.867 35.3206 101.01 35.4639C101.154 35.623 101.233 35.8618 101.233 36.0687C101.233 36.2756 101.154 36.4666 101.01 36.6417C100.867 36.8009 100.676 36.8964 100.437 36.8964H98.0181V38.6155H101.44C101.711 38.6155 101.87 38.6632 102.013 38.8224C102.172 38.9975 102.236 39.2203 102.236 39.4272C102.236 39.6342 102.188 39.8252 102.013 39.9843C101.854 40.1435 101.711 40.239 101.424 40.239H98.0021V40.4778C98.0021 40.7325 97.9226 40.9553 97.7475 41.1145C97.5883 41.2736 97.3654 41.3691 97.1108 41.3691C96.8561 41.3691 96.6492 41.2736 96.4741 41.1145C96.3149 40.9553 96.2512 40.7484 96.2353 40.4778L96.2831 40.43Z" fill="white"/>
<path d="M68.5712 31.1343C68.412 31.2934 68.3165 31.5481 68.3165 31.8346V33.2035H61.8541C61.3766 33.2035 60.9787 33.3627 60.6285 33.681C60.2942 34.0153 60.1191 34.4132 60.1191 34.8748V44.1705C60.1191 44.6162 60.2942 45.0141 60.6444 45.3484C60.9946 45.6667 61.3925 45.8577 61.8382 45.8577H68.3006V48.102C68.3006 48.4522 68.412 48.7387 68.5553 48.8661C68.6826 48.9934 68.9214 49.1367 69.2556 49.1367C69.5899 49.1367 69.8127 48.9934 69.9401 48.8661C70.0833 48.7228 70.2266 48.4363 70.2266 48.102V45.8577H76.7049C77.1824 45.8577 77.6758 45.5871 77.9305 45.3324C78.1852 45.0778 78.408 44.5843 78.408 44.1386V34.9385C78.408 34.4769 78.2489 34.079 77.9624 33.7447C77.644 33.3786 77.2142 33.2194 76.689 33.2194H70.2107V31.8505C70.2107 31.564 70.1152 31.3094 69.956 31.1502C69.7968 30.991 69.4944 30.8955 69.2556 30.8955C69.0169 30.8955 68.7144 30.991 68.5394 31.1661L68.5712 31.1343ZM62.1406 43.8362C62.0292 43.7248 61.9815 43.6134 61.9815 43.4542V35.6229C61.9815 35.4638 62.0292 35.3364 62.1406 35.2091C62.268 35.0817 62.4112 35.034 62.5545 35.034H68.3165V43.9954H62.5545C62.3953 43.9954 62.252 43.9476 62.1247 43.8362H62.1406ZM75.9886 35.0499C76.1478 35.0499 76.307 35.0977 76.4184 35.225C76.5298 35.3364 76.5776 35.4638 76.5776 35.6388V43.4701C76.5776 43.6134 76.4821 43.7885 76.4025 43.8681C76.3229 43.9476 76.2115 44.0272 76.0205 44.0272H70.2266V35.0658H75.9727L75.9886 35.0499Z" fill="white"/>
<path d="M112.312 36.1801C112.503 36.1801 112.646 36.2437 112.757 36.3552C112.869 36.4666 112.933 36.6098 112.933 36.8008C112.933 36.9759 112.869 37.1192 112.757 37.2465C112.646 37.3739 112.503 37.4375 112.312 37.4375H109.192C109.001 37.4375 108.842 37.3739 108.73 37.2465C108.619 37.1351 108.571 36.9918 108.571 36.8008C108.571 36.6257 108.619 36.4825 108.73 36.3552C108.842 36.2437 109.001 36.1801 109.192 36.1801H112.312ZM113.378 38.0742C113.569 38.0742 113.712 38.1379 113.824 38.2493C113.935 38.3607 113.999 38.504 113.999 38.695C113.999 38.8701 113.935 39.0133 113.824 39.1407C113.712 39.268 113.569 39.3317 113.378 39.3317H110.258C110.067 39.3317 109.908 39.268 109.797 39.1407C109.685 39.0292 109.638 38.886 109.638 38.695C109.638 38.5199 109.701 38.3766 109.797 38.2493C109.908 38.1379 110.067 38.0742 110.258 38.0742H113.378ZM120.732 36.1801C120.923 36.1801 121.066 36.2437 121.178 36.3552C121.289 36.4666 121.337 36.6098 121.337 36.8008C121.337 36.9759 121.289 37.1192 121.178 37.2465C121.066 37.3739 120.923 37.4375 120.732 37.4375H117.612C117.421 37.4375 117.262 37.3739 117.151 37.2465C117.039 37.1351 116.991 36.9918 116.991 36.8008C116.991 36.6257 117.039 36.4825 117.151 36.3552C117.262 36.2437 117.421 36.1801 117.612 36.1801H120.732ZM121.798 38.0742C121.989 38.0742 122.133 38.1379 122.244 38.2493C122.356 38.3607 122.419 38.504 122.419 38.695C122.419 38.8701 122.356 39.0133 122.244 39.1407C122.133 39.268 121.989 39.3317 121.798 39.3317H118.679C118.488 39.3317 118.328 39.268 118.217 39.1407C118.106 39.0292 118.058 38.886 118.058 38.695C118.058 38.5199 118.122 38.3766 118.217 38.2493C118.328 38.1379 118.488 38.0742 118.679 38.0742H121.798ZM109.272 41.8307C109.272 41.7033 109.303 41.6078 109.383 41.5123C109.447 41.4487 109.558 41.4168 109.733 41.4168H114.604V42.4674H109.272V41.8466V41.8307ZM114.604 43.8522V44.8868H109.733C109.574 44.8868 109.463 44.839 109.383 44.7754C109.303 44.6958 109.272 44.5844 109.272 44.4411V43.8522H114.604ZM121.241 41.4009C121.4 41.4009 121.528 41.4487 121.607 41.5442C121.671 41.6078 121.703 41.7352 121.703 41.8784V42.4514H116.371V41.4009H121.241ZM121.703 43.8522V44.4411C121.703 44.5844 121.655 44.7117 121.591 44.7754C121.528 44.839 121.4 44.8709 121.241 44.8868H116.387V43.8522H121.719H121.703ZM123.358 47.3699H117.151C116.928 47.3699 116.673 47.338 116.514 47.1789C116.355 47.0197 116.371 46.7014 116.371 46.3034H122.18C122.467 46.3034 122.753 46.192 122.992 45.9532C123.231 45.6986 123.374 45.4121 123.39 45.1096V41.0666C123.39 40.7642 123.263 40.5255 123.072 40.3345C122.817 40.1275 122.515 40.0161 122.18 40.0161H108.603C108.317 40.0161 108.062 40.1116 107.871 40.3185C107.664 40.5255 107.568 40.7801 107.584 41.0666V45.0937C107.584 45.4121 107.68 45.6826 107.887 45.9373C108.062 46.1442 108.301 46.2716 108.603 46.3034H114.62V46.9401C114.62 47.6405 115.018 48.1817 115.336 48.4522C115.702 48.7547 116.196 48.8502 116.593 48.8502H123.358C123.756 48.8502 124.09 48.5318 124.09 48.118C124.09 47.7041 123.756 47.3858 123.358 47.3858V47.3699ZM122.833 35.4956C122.944 35.4956 123.056 35.5434 123.12 35.623C123.183 35.6866 123.215 35.798 123.231 35.9254V38.5199C123.231 38.8064 123.358 39.0611 123.502 39.2043C123.645 39.3476 123.884 39.4272 124.09 39.4272C124.266 39.4272 124.568 39.2998 124.679 39.1725C124.807 39.0292 124.918 38.7587 124.918 38.504V35.4001C124.95 35.034 124.791 34.6838 124.52 34.4132C124.266 34.1586 123.899 33.9835 123.533 33.9994H116.323V33.0921H122.483C122.706 33.0921 122.881 32.9807 123.008 32.8534C123.135 32.726 123.215 32.5032 123.215 32.344C123.215 32.1848 123.135 31.9302 123.008 31.8028C122.881 31.6755 122.706 31.6118 122.483 31.6118H108.476C108.253 31.6118 108.078 31.6755 107.934 31.8187C107.807 31.962 107.728 32.1212 107.728 32.3281C107.728 32.5509 107.823 32.7419 107.934 32.8693C108.062 32.9807 108.237 33.0762 108.476 33.0762H114.62V33.9835H107.409C107.059 33.9835 106.693 34.1267 106.438 34.3973C106.184 34.652 106.009 35.0181 106.04 35.3842V38.4881C106.04 38.7427 106.152 39.0133 106.279 39.1566C106.391 39.268 106.693 39.4113 106.868 39.4113C107.075 39.4113 107.314 39.3476 107.457 39.1884C107.6 39.0292 107.728 38.7746 107.728 38.504V35.9095C107.728 35.798 107.775 35.6707 107.839 35.607C107.903 35.5434 108.014 35.4797 108.126 35.4797H114.62V38.6472C114.62 38.9337 114.715 39.1884 114.859 39.3317C115.002 39.4749 115.256 39.5545 115.463 39.5545C115.67 39.5545 115.925 39.459 116.068 39.3158C116.211 39.1566 116.323 38.9337 116.323 38.6472V35.4797H122.817L122.833 35.4956Z" fill="white"/>
</g>
<defs>
<clipPath id="clip0_25_74">
<rect width="160" height="80" fill="white"/>
</clipPath>
</defs>
</svg>
